<svg xmlns="http://www.w3.org/2000/svg" version="1.1" x="0px" y="0px" width="24px" height="24px" viewBox="15.5 15.5 24 24" enable-background="new 15.5 15.5 24 24" xml:space="preserve"><path fill="#EEEEEE" stroke="#404040" stroke-width="2" stroke-linecap="round" stroke-linejoin="round" d="M37.25 27.625c0 5.349-4.401 9.75-9.75 9.75s-9.75-4.401-9.75-9.75 4.401-9.75 9.75-9.75S37.25 22.276 37.25 27.625z"/><path fill="#404040" d="M25.964 27.427c0-0.703 0.78-0.819 1.58-1.034 0.779-0.214 1.56-0.526 1.56-1.657 0-0.858-0.8-1.482-1.618-1.482 -1.638 0-1.891 1.931-3.14 1.931 -0.702 0-1.189-0.546-1.189-1.404 0-2.048 2.574-3.218 4.329-3.218 2.517 0 4.661 1.56 4.661 4.173 0 2.165-1.365 3.433-3.374 3.939v0.702c0 0.78-0.585 1.345-1.404 1.345 -0.877 0-1.404-0.565-1.404-1.345L25.964 27.427 25.964 27.427zM25.847 33.394c0-0.839 0.683-1.521 1.521-1.521 0.839 0 1.521 0.683 1.521 1.521s-0.683 1.521-1.521 1.521C26.53 34.915 25.847 34.232 25.847 33.394z"/></svg>