<?xml version="1.0" encoding="utf-8"?>
<!-- Generator: Adobe Illustrator 16.0.0, SVG Export Plug-In . SVG Version: 6.00 Build 0)  -->
<!DOCTYPE svg PUBLIC "-//W3C//DTD SVG 1.1//EN" "http://www.w3.org/Graphics/SVG/1.1/DTD/svg11.dtd">
<svg version="1.1" id="Layer_1" xmlns="http://www.w3.org/2000/svg" xmlns:xlink="http://www.w3.org/1999/xlink" x="0px" y="0px"
	 width="24px" height="24px" viewBox="0 0 24 24" enable-background="new 0 0 24 24" xml:space="preserve">
<path fill="none" stroke="#FFFFFF" stroke-width="2" stroke-linecap="round" stroke-linejoin="round" d="M37.25,27.625
	c0,5.35-4.4,9.75-9.75,9.75s-9.75-4.4-9.75-9.75s4.4-9.75,9.75-9.75S37.25,22.275,37.25,27.625z"/>
<path fill="#FFFFFF" d="M25.964,27.427c0-0.702,0.78-0.819,1.58-1.034c0.779-0.213,1.56-0.525,1.56-1.656
	c0-0.858-0.799-1.482-1.617-1.482c-1.639,0-1.891,1.932-3.141,1.932c-0.701,0-1.188-0.547-1.188-1.404
	c0-2.049,2.573-3.219,4.329-3.219c2.517,0,4.66,1.561,4.66,4.174c0,2.164-1.364,3.433-3.373,3.938v0.702
	c0,0.78-0.586,1.346-1.404,1.346c-0.877,0-1.404-0.565-1.404-1.346L25.964,27.427L25.964,27.427z M25.848,33.395
	c0-0.84,0.682-1.521,1.521-1.521s1.521,0.684,1.521,1.521s-0.683,1.521-1.521,1.521C26.529,34.915,25.848,34.232,25.848,33.395z"/>
</svg>
