<svg xmlns="http://www.w3.org/2000/svg" version="1.1" x="0px" y="0px" width="24px" height="24px" viewBox="20 20 24 24" enable-background="new 20 20 24 24" xml:space="preserve"><path fill="#404040" d="M32.677 24.277c1.041 0.081 1.951-0.698 2.032-1.733 0.081-1.047-0.698-1.951-1.739-2.038 -1.035-0.082-1.945 0.698-2.032 1.739C30.856 23.285 31.636 24.195 32.677 24.277zM31.075 25.24c0.375-0.262 0.829-0.436 1.321-0.399 0.654 0.056 1.19 0.455 1.508 0.947l1.908 3.784 2.599 1.789c0.225 0.168 0.355 0.449 0.337 0.742 -0.037 0.474-0.448 0.823-0.922 0.785 -0.138-0.012-0.25-0.062-0.387-0.125l-2.836-1.957c-0.088-0.069-0.162-0.155-0.213-0.249l-0.716-1.415 -0.854 3.771 3.354 3.957c0.068 0.126 0.124 0.263 0.149 0.406l0.91 4.787c-0.007 0.105 0.013 0.168 0.006 0.262 -0.056 0.704-0.673 1.228-1.377 1.172 -0.58-0.044-1.016-0.48-1.153-1.01l-0.86-4.482 -2.718-2.985 -0.636 2.904c-0.019 0.137-0.2 0.424-0.255 0.543l-2.612 4.406c-0.262 0.405-0.698 0.661-1.197 0.623 -0.704-0.056-1.234-0.673-1.178-1.377 0.013-0.2 0.1-0.405 0.174-0.549l2.431-4.082 2.279-8.906L31.075 25.24zM28.897 31.176c-0.146 0.558-0.716 0.892-1.273 0.747l-0.831-0.216c-0.558-0.145-0.893-0.715-0.748-1.273l1.467-5.641c0.145-0.558 0.715-0.892 1.273-0.747l0.831 0.216c0.558 0.145 0.892 0.715 0.747 1.273L28.897 31.176z"/></svg>