<svg xmlns:svg="http://www.w3.org/2000/svg" xmlns="http://www.w3.org/2000/svg" width="24" height="24" version="1.1">
  <g transform="translate(0,-1028.3622)">
    <path d="M20.44 2C19.67 2.04 19.04 2.43 18.63 2.94L18.59 2.94 16 6 16 4A0.99 0.99 0 0 0 15 3L6 3C4.91 3 4 3.91 4 5L4 18C4 19.09 4.91 20 6 20L19 20C20.09 20 21 19.09 21 18L21 12A0.99 0.99 0 0 0 20 11L18.41 11 22.47 6.09A1 1 0 0 0 22.5 6.06C22.79 5.66 22.91 5.21 22.97 4.75 23.03 4.29 23.04 3.79 22.75 3.28 22.26 2.42 21.36 1.95 20.44 2zM15.19 6.97L12.97 9.59 11.91 8.34C10.97 7.25 9.36 7.15 8.28 8.09 8.17 8.19 8.09 8.33 8 8.44L8 7 15 7A0.99 0.99 0 0 0 15.19 6.97zM8 11.44C8.05 11.51 8.1 11.59 8.16 11.66L11.16 15.19C11.54 15.62 12.04 15.9 12.56 16L8 16 8 11.44zM17 12.69L17 16 13.59 16C14.11 15.88 14.6 15.57 14.97 15.13L17 12.69z" transform="translate(0,1028.3622)" style="-inkscape-font-specification:Sans;baseline-shift:baseline;block-progression:tb;direction:ltr;fill:#fff;font-family:Sans;font-size:medium;letter-spacing:normal;line-height:normal;opacity:0.3;text-align:start;text-anchor:start;text-decoration:none;text-indent:0;text-transform:none;word-spacing:normal;writing-mode:lr-tb"/>
    <path d="M6 4C5.45 4 5 4.45 5 5L5 18C5 18.55 5.45 19 6 19L19 19C19.55 19 20 18.55 20 18L20 12 18 12 18 17 7 17 7 6 15 6 15 4 6 4z" transform="translate(0,1028.3622)" fill="#444"/>
    <path d="m19.38 1031.92-6.37 7.63-1.84-2.16c-0.54-0.63-1.61-0.71-2.23-0.16-0.62 0.54-0.49 1.57-0.02 2.13l2.99 3.53c0.57 0.65 1.73 0.63 2.28-0.03l7.51-9.03c0.31-0.44 0.43-1.25 0.19-1.68-0.29-0.52-0.86-0.81-1.38-0.78-0.5 0.03-0.88 0.25-1.12 0.56z" style="-inkscape-font-specification:Sans;baseline-shift:baseline;block-progression:tb;direction:ltr;fill:#444;font-family:Sans;font-size:medium;letter-spacing:normal;line-height:normal;text-align:start;text-anchor:start;text-decoration:none;text-indent:0;text-transform:none;word-spacing:normal;writing-mode:lr-tb"/>
  </g>
</svg>
